<svg width="115" height="65" viewBox="0 0 115 65" fill="none" xmlns="http://www.w3.org/2000/svg">
<path d="M113.287 6.73572C113.287 6.73883 113.289 6.80168 113.174 6.93548C113.054 7.07432 112.843 7.24771 112.503 7.44367C111.824 7.83552 110.775 8.2384 109.354 8.63521C106.524 9.42558 102.394 10.1459 97.2484 10.7538C86.9675 11.9683 72.7436 12.7214 57.0183 12.7214C41.293 12.7214 27.0692 11.9683 16.7883 10.7538C11.6427 10.1459 7.51239 9.42558 4.68253 8.63521C3.2618 8.2384 2.21216 7.83552 1.53338 7.44367C1.19395 7.24771 0.982463 7.07432 0.86311 6.93548C0.749569 6.80341 0.74997 6.74047 0.749999 6.73587L0.75 6.73572L0.749999 6.73557C0.74997 6.73097 0.749569 6.66803 0.86311 6.53595C0.982463 6.39712 1.19395 6.22373 1.53338 6.02777C2.21216 5.63591 3.2618 5.23303 4.68253 4.83623C7.51239 4.04586 11.6427 3.32552 16.7883 2.71767C27.0692 1.50316 41.293 0.75 57.0183 0.75C72.7436 0.75 86.9675 1.50316 97.2484 2.71767C102.394 3.32552 106.524 4.04586 109.354 4.83623C110.775 5.23303 111.824 5.63591 112.503 6.02777C112.843 6.22373 113.054 6.39712 113.174 6.53595C113.287 6.66803 113.287 6.73097 113.287 6.73557V6.73572Z" stroke="white" stroke-width="1.5"/>
<path d="M113.287 23.4604C113.287 23.8382 113.07 24.322 112.39 24.9038C111.716 25.4809 110.678 26.0721 109.269 26.6556C106.458 27.8199 102.345 28.8847 97.2069 29.7848C86.9431 31.5829 72.7338 32.6992 57.0183 32.6992C41.3028 32.6992 27.0936 31.5829 16.8297 29.7848C11.6917 28.8847 7.57875 27.8199 4.76778 26.6556C3.35903 26.0721 2.32031 25.4809 1.64616 24.9038C0.966575 24.322 0.75 23.8382 0.75 23.4604C0.75 23.0827 0.966575 22.5989 1.64616 22.0171C2.32031 21.44 3.35903 20.8488 4.76778 20.2653C7.57875 19.101 11.6917 18.0362 16.8297 17.1361C27.0936 15.338 41.3028 14.2217 57.0183 14.2217C72.7338 14.2217 86.9431 15.338 97.2069 17.1361C102.345 18.0362 106.458 19.101 109.269 20.2653C110.678 20.8488 111.716 21.44 112.39 22.0171C113.07 22.5989 113.287 23.0827 113.287 23.4604Z" stroke="white" stroke-width="1.5"/>
<path d="M113.287 48.9488C113.287 50.6905 111.978 52.5335 109.15 54.3511C106.356 56.1467 102.264 57.7921 97.1396 59.1851C86.902 61.968 72.7167 63.6986 57.0183 63.6986C41.3199 63.6986 27.1346 61.968 16.897 59.1851C11.7728 57.7921 7.68022 56.1467 4.88628 54.3511C2.05821 52.5335 0.75 50.6905 0.75 48.9488C0.75 47.2071 2.05821 45.3641 4.88628 43.5465C7.68022 41.7508 11.7728 40.1055 16.897 38.7125C27.1346 35.9295 41.3199 34.199 57.0183 34.199C72.7167 34.199 86.902 35.9295 97.1396 38.7125C102.264 40.1055 106.356 41.7508 109.15 43.5465C111.978 45.3641 113.287 47.2071 113.287 48.9488Z" stroke="white" stroke-width="1.5"/>
<path d="M57.0183 6.66315L57.0183 48.8628" stroke="white" stroke-width="1.5"/>
</svg>
